<?xml version="1.0" encoding="utf-8"?>
<svg viewBox="0 0 600 338" xmlns="http://www.w3.org/2000/svg" xmlns:xlink="http://www.w3.org/1999/xlink">
    <path d="M0 169v169h600V0H0v169zm595 0v164H5V5h590v164z" />
    <path d="M278.7 90.6c-7.4 1.6-15.8 4.6-19.4 7-2.2 1.4-2.3 1.9-2.3 17.9 0 9.1.2 16.5.4 16.5s3.3-2 6.9-4.4c8.3-5.6 16.4-8.6 24.7-9.3 5.5-.4 7.2-.1 10.9 1.9 6.4 3.3 8.6 6.7 8.5 13.1-.1 2.9-.9 6.8-1.9 8.7-.9 1.9-7 8.7-13.5 15-10.1 10-12 12.3-14 17.5-2.4 6.6-3 19.8-1.1 24.7l1.1 2.8h14.6c13.5 0 14.6-.1 13.9-1.8-2.8-6.8-2.4-13.2 1.2-19.4 1-1.8 6.7-7.5 12.6-12.8 17.5-15.4 21.9-23.6 21.9-40 0-7.3-.5-10.8-2.1-15.1-4.3-11.2-14.9-19.5-28.8-22.4-8.6-1.8-24.8-1.8-33.6.1zM283.6 215.3c-7.1 4-10.4 11.3-8.6 19.1 3.6 15.9 27.2 20 37.3 6.4 2.1-2.8 3.4-11 2.3-15.2-.9-3.6-6.5-9.6-10.3-11.2-5.3-2.2-16.1-1.8-20.7.9z" />
</svg>
