<svg xmlns="http://www.w3.org/2000/svg" x="0px" y="0px" viewBox="0 0 400 400">
	<circle fill="#FFFFFF" cx="200" cy="200" r="200" stroke-miterlimit="10"/>
	<path fill="#2D2D2D" d="M147.53,217.69c-2.98-1.79-2.11-4.36-1.14-6.74c0.45-1.11,1.48-2.26,2.54-2.78c1.48-0.73,1.94-1.58,1.76-3.12
			c-0.73-6.24-1.41-12.49-2.07-18.74c-0.18-1.75-0.32-3.53-0.28-5.29c0.1-4.26,1.57-5.92,5.79-6.76c0.68-0.14,1.37-0.28,2.15-0.8
			c-0.6-0.22-1.19-0.51-1.81-0.64c-2.14-0.46-4.28-1.07-6.45-1.22c-2.29-0.16-3.16-1.02-2.72-3.28c0.25-1.31,0.37-2.66,0.48-3.99
			c0.44-5.41,0.86-10.81,1.28-16.22c0.02-0.21,0-0.42,0.01-0.64c0.13-6.98,1.24-8.11,8.15-8.29c0.77-0.02,1.55-0.09,2.31-0.22
			c1.96-0.33,3.02-1.46,2.86-3.52c-0.18-2.32-0.47-4.64-0.63-6.96c-0.74-10.37,1.37-20.12,6.87-28.98
			c4.19-6.76,10.14-10.9,18.34-11.29c1.9-0.09,3.63,0.17,5.09,1.58c0.43,0.41,1.55,0.79,1.79,0.57c0.61-0.56,1.24-1.47,1.23-2.24
			c-0.01-1.24-0.49-2.48-0.85-3.7c-2.79-9.63,1.9-22.32,10.4-27.57c7.45-4.6,15.05-3.97,22.59-0.05c2.5,1.3,5.05,2.53,7.47,3.96
			c0.83,0.49,1.76,1.38,1.98,2.25c1.14,4.59,2.26,9.19,3.01,13.85c0.82,5.1-1.31,8.05-6.37,9.32c-1.31,0.33-1.75,0.82-1.59,2.15
			c0.26,2.16,0.37,4.33,0.56,6.81c2.17-0.36,4.3-0.7,6.43-1.07c2.16-0.37,4.3-0.86,6.47-1.1c1.21-0.13,1.48-0.65,1.57-1.73
			c0.11-1.4,0.37-2.8,0.72-4.16c0.17-0.66,0.72-1.23,1.1-1.83c0.18,0.04,0.35,0.08,0.53,0.12c0.14,0.86,0.3,1.71,0.43,2.57
			c0.09,0.56-0.05,1.44,0.24,1.62c2.02,1.21,3.51,3.6,5.99,3.69c5.29,0.21,10.6,0.03,15.9,0.01c14.21-0.05,28.42-0.11,42.62-0.15
			c0.85,0,1.69,0.1,2.54,0.18c0.98,0.09,1.81,0.24,1.61,1.63c-0.07,0.46,0.46,1.01,0.72,1.52c0.24-0.04,0.48-0.08,0.72-0.12
			c0.17-1.28,0.47-2.56,0.49-3.84c0.03-2.12-0.2-4.24-0.12-6.35c0.02-0.57,0.76-1.11,1.17-1.67c0.53,0.54,1.41,1.03,1.51,1.63
			c0.19,1.23-0.16,2.53-0.08,3.79c0.12,1.96,0.42,3.91,0.78,5.86c1.43,0.09,2.85-1.77,3.27,0.51c0.2,1.08,0.03,2.22,0.03,3.49
			c6.16,0.8,12.23,0.38,18.34-0.49c3.12-0.45,6.33-0.28,9.5-0.27c2.02,0.01,2.3,1.51,2.29,3.12c-0.02,1.82-1.45,1.48-2.47,1.47
			c-11.22-0.06-22.43-0.18-33.65-0.28c-0.76-0.01-1.52,0-2.24,0c-0.52,3.45-0.52,3.44-3.99,3.4c-5.8-0.07-11.59-0.17-17.39-0.15
			c-1.68,0-3.38,0.25-5.04,0.56c-1.98,0.37-3.51,1.23-4.6,3.24c-0.97,1.79-2.68,3.26-4.32,4.56c-1.31,1.04-2.05,2.13-1.79,3.75
			c0.55,3.48,1.07,6.96,1.77,10.41c0.72,3.55,0.82,3.58-2.6,4.46c-1.35,0.35-2.07,1.04-2.3,2.39c-0.36,2.02-0.78,4.02-1.18,6.03
			c-0.21,1.04-0.25,2.16-0.67,3.1c-2.68,5.94-7.65,9.53-13.21,12.4c-0.89,0.46-2.23,0.2-3.34,0.07c-6.96-0.86-13.49-2.96-19.44-6.77
			c-2.54-1.63-5.21-3.05-7.88-4.6c-0.69,2.5-1.29,4.68-1.91,6.95c0.6,0.33,1.23,0.64,1.83,0.99c3.11,1.83,5.46,4.32,5.2,8.12
			c-0.57,8.38-1.25,16.76-2.23,25.09c-0.26,2.19-1.7,4.28-2.77,6.32c-0.77,1.47-2.07,2.06-3.75,1.37c-0.32-0.13-0.69-0.16-1.03-0.25
			c-3.42-0.9-4.91,0.32-4.6,3.92c0.39,4.6,2.29,8.55,5.42,11.92c6,6.45,10.38,13.91,13.67,22.03c2.23,5.49,4.26,11.07,6.51,16.55
			c0.7,1.7,1.02,3.82,3.47,4.37c0.5,0.11,0.75,1.54,1.05,2.39c3.28,9.4,1.46,18.84,0.18,28.28c-0.81,6.02-1.61,12.04-0.37,18.13
			c0.57,2.81,0.24,5.59-1.17,8.23c-0.58,1.08-0.92,2.42-0.94,3.65c-0.07,4.79,0,9.59,0.09,14.38c0.01,0.76,0.13,1.66,0.56,2.24
			c3.53,4.8,6.48,10.18,12.52,12.51c2.43,0.94,4.92,1.87,7.11,3.24c1.23,0.77,2.39,2.32,2.72,3.72c0.76,3.2-0.32,4.65-3.59,4.93
			c-8.68,0.76-17.31,0.96-25.82-1.72c-2.59-0.82-5.55-0.48-8.33-0.69c-2.44-0.19-4.89-0.34-7.32-0.63
			c-1.23-0.15-1.73-0.97-1.63-2.26c0.37-5.1,1.08-10.09,3.15-14.84c0.63-1.44,1.07-3.11,1.04-4.66c-0.11-4.66-0.51-9.31-0.8-13.96
			c-0.02-0.35-0.03-0.76-0.21-1.03c-3.59-5.21-3.33-11.41-4.3-17.26c-0.74-4.44-0.87-8.99-1.16-13.5c-0.13-1.98,0.5-3.71,1.52-5.55
			c2.03-3.69,2.31-7.88,1.09-11.92c-0.87-2.88-2.79-3.79-5.6-3.02c-2.27,0.62-4.15,0.16-5.47-1.68c-3.5-4.87-6.89-9.81-10.28-14.75
			c-1.04-1.51-1.86-3.17-2.88-4.69c-1.22-1.83-2.88-3.13-5.14-3.4c-3.4-0.41-5.46-2.33-6.57-5.5c-0.33-0.95-0.94-1.8-1.23-2.34
			c-1.99,3.14-4.03,6.21-5.92,9.37c-4.32,7.23-7.21,15.01-8.39,23.37c-0.35,2.48-1.47,4.2-3.51,5.72c-1.43,1.06-2.27,2.93-3.35,4.45
			c-0.89,1.25-1.48,2.88-2.65,3.72c-3.6,2.58-4.97,6.39-4.96,10.3c0.01,5-1.41,9.42-3.26,13.88c-1.91,4.62-3.71,9.29-5.45,13.98
			c-0.94,2.53-2.31,4.52-4.57,6.15c-1.57,1.13-3,2.87-3.74,4.66c-2.52,6.08-3.52,12.5-3.03,19.07c0.13,1.79,0.8,3.55,1.28,5.31
			c0.24,0.88,0.7,1.71,0.88,2.6c0.78,3.92-0.4,5.69-4.34,5.8c-4.85,0.13-9.74,0.15-14.56-0.28c-3.42-0.3-4.69-1.83-4.44-5.27
			c0.33-4.55,0.99-9.11,2.01-13.56c1.24-5.43,3.05-10.72,4.53-16.1c0.56-2.04,0.44-3.86-0.64-6.02c-0.99-1.99-0.88-4.87-0.4-7.18
			c0.53-2.56,2.13-4.88,3.09-7.38c1.13-2.94,2.48-5.89,2.99-8.95c0.95-5.79,3.14-10.95,6.32-15.79c2.33-3.54,4.59-7.12,6.82-10.72
			c1.54-2.48,2.1-5.17,1.72-8.11c-0.98-7.72,1-15.17,2.19-22.69c0.29-1.81,0.51-3.64,0.73-5.46c0.21-1.69-0.44-3.18-0.81-4.78
			C146.51,224.72,144.79,221.24,147.53,217.69z M264.72,118.4c-0.1-0.24-0.19-0.49-0.29-0.73c-2.66,0-5.33,0.08-7.99-0.03
			c-1.86-0.08-2.62,0.91-2.05,2.39c0.9,2.38,2.22,4.6,3.57,7.32C260.53,123.95,262.62,121.18,264.72,118.4z M265.81,111.66
			c-1.47,0-2.81-0.12-4.11,0.06c-0.5,0.07-1.09,0.74-1.33,1.28c-0.56,1.25-0.94,2.58-1.41,3.92c0.62,0.03,1.8,0.14,2.98,0.14
			C266,117.05,266.9,115.83,265.81,111.66z"/>
</svg>
